<svg xmlns="http://www.w3.org/2000/svg" xmlns:xlink="http://www.w3.org/1999/xlink" width="1536" zoomAndPan="magnify" viewBox="0 0 1152 647.999998" height="864" preserveAspectRatio="xMidYMid meet" version="1.2"><defs><clipPath id="0257d29535"><path d="M 332.226562 357.457031 L 361.445312 357.457031 L 361.445312 386.675781 L 332.226562 386.675781 Z M 332.226562 357.457031 "/></clipPath><clipPath id="8c7434d5bc"><path d="M 346.835938 357.457031 C 338.769531 357.457031 332.226562 364 332.226562 372.066406 C 332.226562 380.136719 338.769531 386.675781 346.835938 386.675781 C 354.902344 386.675781 361.445312 380.136719 361.445312 372.066406 C 361.445312 364 354.902344 357.457031 346.835938 357.457031 Z M 346.835938 357.457031 "/></clipPath><clipPath id="a9e0457dcf"><path d="M 332.226562 275.492188 L 361.445312 275.492188 L 361.445312 304.710938 L 332.226562 304.710938 Z M 332.226562 275.492188 "/></clipPath><clipPath id="b57a26516a"><path d="M 346.835938 275.492188 C 338.769531 275.492188 332.226562 282.035156 332.226562 290.101562 C 332.226562 298.171875 338.769531 304.710938 346.835938 304.710938 C 354.902344 304.710938 361.445312 298.171875 361.445312 290.101562 C 361.445312 282.035156 354.902344 275.492188 346.835938 275.492188 Z M 346.835938 275.492188 "/></clipPath><clipPath id="2fdfb7dc5c"><path d="M 967.839844 357.457031 L 997.058594 357.457031 L 997.058594 386.675781 L 967.839844 386.675781 Z M 967.839844 357.457031 "/></clipPath><clipPath id="99443faea7"><path d="M 982.449219 357.457031 C 974.382812 357.457031 967.839844 364 967.839844 372.066406 C 967.839844 380.136719 974.382812 386.675781 982.449219 386.675781 C 990.519531 386.675781 997.058594 380.136719 997.058594 372.066406 C 997.058594 364 990.519531 357.457031 982.449219 357.457031 Z M 982.449219 357.457031 "/></clipPath></defs><g id="d04fb153e9"><g style="fill:#ffffff;fill-opacity:1;"><g transform="translate(96.857057, 395.08553)"><path style="stroke:none" d="M 16.578125 -114.40625 L 18.796875 -196.75 L 184.59375 -196.75 L 186.8125 -114.40625 L 177.96875 -114.40625 C 177.96875 -114.40625 177.597656 -116.660156 176.859375 -121.171875 C 176.117188 -125.691406 174.550781 -132.09375 172.15625 -140.375 C 170.132812 -147.9375 167.1875 -155.351562 163.3125 -162.625 C 159.445312 -169.90625 154.890625 -175.9375 149.640625 -180.71875 C 144.390625 -185.507812 138.632812 -187.90625 132.375 -187.90625 C 129.425781 -187.90625 126.984375 -187.125 125.046875 -185.5625 C 123.109375 -184 122.140625 -181.648438 122.140625 -178.515625 L 122.140625 -15.46875 C 122.140625 -13.070312 122.644531 -11.367188 123.65625 -10.359375 C 124.675781 -9.347656 126.382812 -8.84375 128.78125 -8.84375 L 150.890625 -8.84375 L 150.890625 0 L 52.5 0 L 52.5 -8.84375 L 74.609375 -8.84375 C 77.191406 -8.84375 78.941406 -9.347656 79.859375 -10.359375 C 80.785156 -11.367188 81.25 -13.070312 81.25 -15.46875 L 81.25 -178.515625 C 81.25 -181.648438 80.328125 -184 78.484375 -185.5625 C 76.640625 -187.125 74.148438 -187.90625 71.015625 -187.90625 C 64.753906 -187.90625 59 -185.507812 53.75 -180.71875 C 48.5 -175.9375 43.984375 -169.90625 40.203125 -162.625 C 36.429688 -155.351562 33.441406 -147.9375 31.234375 -140.375 C 28.835938 -132.09375 27.269531 -125.691406 26.53125 -121.171875 C 25.789062 -116.660156 25.421875 -114.40625 25.421875 -114.40625 Z M 16.578125 -114.40625 "/></g></g><g style="fill:#ffffff;fill-opacity:1;"><g transform="translate(277.028791, 395.08553)"><path style="stroke:none" d="M 48.640625 -65.5 C 48.640625 -44.488281 50.066406 -28.867188 52.921875 -18.640625 C 55.773438 -8.421875 61.347656 -3.3125 69.640625 -3.3125 C 77.929688 -3.3125 83.503906 -8.421875 86.359375 -18.640625 C 89.210938 -28.867188 90.640625 -44.488281 90.640625 -65.5 C 90.640625 -86.5 89.210938 -102.109375 86.359375 -112.328125 C 83.503906 -122.554688 77.929688 -127.671875 69.640625 -127.671875 C 61.347656 -127.671875 55.773438 -122.554688 52.921875 -112.328125 C 50.066406 -102.109375 48.640625 -86.5 48.640625 -65.5 Z M 13.265625 -65.5 C 13.265625 -78.757812 15.890625 -90.59375 21.140625 -101 C 26.390625 -111.40625 33.296875 -119.554688 41.859375 -125.453125 C 50.429688 -131.347656 59.691406 -134.296875 69.640625 -134.296875 C 79.585938 -134.296875 88.84375 -131.347656 97.40625 -125.453125 C 105.976562 -119.554688 112.890625 -111.40625 118.140625 -101 C 123.390625 -90.59375 126.015625 -78.757812 126.015625 -65.5 C 126.015625 -52.226562 123.390625 -40.429688 118.140625 -30.109375 C 112.890625 -19.796875 105.976562 -11.644531 97.40625 -5.65625 C 88.84375 0.320312 79.585938 3.3125 69.640625 3.3125 C 59.691406 3.3125 50.429688 0.320312 41.859375 -5.65625 C 33.296875 -11.644531 26.390625 -19.796875 21.140625 -30.109375 C 15.890625 -40.429688 13.265625 -52.226562 13.265625 -65.5 Z M 13.265625 -65.5 "/></g></g><g style="fill:#ffffff;fill-opacity:1;"><g transform="translate(416.30266, 395.08553)"><path style="stroke:none" d="M 11.046875 0 L 11.046875 -6.625 L 21.5625 -6.625 C 24.5 -6.625 25.96875 -8.097656 25.96875 -11.046875 L 25.96875 -119.9375 C 25.96875 -122.882812 24.5 -124.359375 21.5625 -124.359375 L 11.046875 -124.359375 L 11.046875 -130.984375 L 58.03125 -130.984375 L 58.03125 -106.390625 L 59.40625 -106.109375 C 62.914062 -114.222656 67.523438 -120.945312 73.234375 -126.28125 C 78.941406 -131.625 85.757812 -134.296875 93.6875 -134.296875 C 98.46875 -134.296875 102.46875 -133.789062 105.6875 -132.78125 C 108.914062 -131.769531 112.003906 -130.25 114.953125 -128.21875 C 119.742188 -124.71875 123.425781 -120.019531 126 -114.125 C 128.582031 -108.226562 129.875 -102.242188 129.875 -96.171875 L 129.875 -11.046875 C 129.875 -8.097656 131.347656 -6.625 134.296875 -6.625 L 144.796875 -6.625 L 144.796875 0 L 84.5625 0 L 84.5625 -6.625 L 93.40625 -6.625 C 96.351562 -6.625 97.828125 -8.097656 97.828125 -11.046875 L 97.828125 -104.1875 C 97.828125 -109.894531 96.992188 -114.863281 95.328125 -119.09375 C 93.671875 -123.332031 90.265625 -125.453125 85.109375 -125.453125 C 81.429688 -125.453125 77.472656 -122.921875 73.234375 -117.859375 C 68.992188 -112.796875 65.398438 -106.117188 62.453125 -97.828125 C 59.503906 -89.535156 58.03125 -80.320312 58.03125 -70.1875 L 58.03125 -11.046875 C 58.03125 -8.097656 59.503906 -6.625 62.453125 -6.625 L 71.296875 -6.625 L 71.296875 0 Z M 11.046875 0 "/></g></g><g style="fill:#ffffff;fill-opacity:1;"><g transform="translate(569.94604, 395.08553)"><path style="stroke:none" d="M 67.703125 -62.453125 L 118.828125 -62.453125 L 93.6875 -138.453125 Z M 12.15625 0 L 12.15625 -8.84375 L 21.5625 -8.84375 C 27.445312 -8.84375 32.507812 -11.191406 36.75 -15.890625 C 40.988281 -20.585938 44.03125 -25.703125 45.875 -31.234375 L 104.1875 -201.734375 L 115.78125 -201.734375 L 174.921875 -22.9375 C 178.054688 -13.539062 183.492188 -8.84375 191.234375 -8.84375 L 202.28125 -8.84375 L 202.28125 0 L 105.28125 0 L 105.28125 -8.84375 L 125.1875 -8.84375 C 127.394531 -8.84375 129.1875 -9.71875 130.5625 -11.46875 C 131.945312 -13.21875 132.640625 -15.289062 132.640625 -17.6875 C 132.640625 -18.601562 132.457031 -19.84375 132.09375 -21.40625 C 131.726562 -22.976562 131.359375 -24.410156 130.984375 -25.703125 L 122.140625 -52.234375 L 64.109375 -52.234375 L 58.3125 -35.375 C 56.28125 -30.21875 55.265625 -25.519531 55.265625 -21.28125 C 55.265625 -18.332031 56.507812 -15.519531 59 -12.84375 C 61.488281 -10.175781 65.035156 -8.84375 69.640625 -8.84375 L 82.625 -8.84375 L 82.625 0 Z M 12.15625 0 "/></g></g><g style="fill:#ffffff;fill-opacity:1;"><g transform="translate(768.356049, 395.08553)"><path style="stroke:none" d="M 48.640625 -65.5 C 48.640625 -47.8125 50.019531 -33.394531 52.78125 -22.25 C 55.539062 -11.101562 60.238281 -5.53125 66.875 -5.53125 C 71.113281 -5.53125 75.03125 -8.15625 78.625 -13.40625 C 82.21875 -18.65625 85.117188 -25.742188 87.328125 -34.671875 C 89.535156 -43.609375 90.640625 -53.609375 90.640625 -64.671875 C 90.640625 -79.035156 89.253906 -90.6875 86.484375 -99.625 C 83.722656 -108.5625 80.5 -115.097656 76.8125 -119.234375 C 73.132812 -123.378906 69.820312 -125.453125 66.875 -125.453125 C 60.238281 -125.453125 55.539062 -119.878906 52.78125 -108.734375 C 50.019531 -97.585938 48.640625 -83.175781 48.640625 -65.5 Z M 13.265625 -65.5 C 13.265625 -77.101562 15.242188 -88.15625 19.203125 -98.65625 C 23.160156 -109.15625 28.820312 -117.71875 36.1875 -124.34375 C 43.5625 -130.976562 52.132812 -134.296875 61.90625 -134.296875 C 68.164062 -134.296875 73.550781 -132.453125 78.0625 -128.765625 C 82.582031 -125.085938 86.222656 -120.394531 88.984375 -114.6875 L 90.640625 -115.234375 L 90.640625 -185.703125 C 90.640625 -188.648438 89.164062 -190.125 86.21875 -190.125 L 70.75 -190.125 L 70.75 -196.75 L 122.703125 -196.75 L 122.703125 -11.046875 C 122.703125 -8.097656 124.175781 -6.625 127.125 -6.625 L 142.59375 -6.625 L 142.59375 0 L 90.640625 0 L 90.640625 -16.03125 L 88.984375 -16.03125 C 86.953125 -11.601562 83.722656 -7.269531 79.296875 -3.03125 C 74.878906 1.195312 69.445312 3.3125 63 3.3125 C 53.238281 3.3125 44.582031 0 37.03125 -6.625 C 29.476562 -13.257812 23.628906 -21.828125 19.484375 -32.328125 C 15.335938 -42.828125 13.265625 -53.882812 13.265625 -65.5 Z M 13.265625 -65.5 "/></g></g><g style="fill:#ffffff;fill-opacity:1;"><g transform="translate(917.025415, 395.08553)"><path style="stroke:none" d="M 16.03125 3.3125 L 16.03125 -51.40625 L 22.109375 -51.40625 L 34.546875 -29.5625 C 38.597656 -22.5625 43.613281 -16.4375 49.59375 -11.1875 C 55.582031 -5.9375 63.09375 -3.3125 72.125 -3.3125 C 79.675781 -3.3125 84.925781 -5.195312 87.875 -8.96875 C 90.820312 -12.75 92.296875 -16.390625 92.296875 -19.890625 C 92.296875 -23.578125 91.328125 -26.800781 89.390625 -29.5625 C 87.460938 -32.332031 84.007812 -35.191406 79.03125 -38.140625 C 74.0625 -41.085938 66.96875 -44.769531 57.75 -49.1875 C 53.882812 -51.03125 49.601562 -53.332031 44.90625 -56.09375 C 40.207031 -58.863281 35.644531 -62.132812 31.21875 -65.90625 C 26.800781 -69.6875 23.164062 -74.109375 20.3125 -79.171875 C 17.457031 -84.234375 16.03125 -90.082031 16.03125 -96.71875 C 16.03125 -104.644531 17.734375 -111.367188 21.140625 -116.890625 C 24.546875 -122.421875 29.054688 -126.703125 34.671875 -129.734375 C 40.296875 -132.773438 46.425781 -134.296875 53.0625 -134.296875 C 58.957031 -134.296875 64.296875 -133.238281 69.078125 -131.125 C 73.867188 -129.007812 77.738281 -126.9375 80.6875 -124.90625 C 84.1875 -122.695312 86.953125 -121.59375 88.984375 -121.59375 C 90.453125 -121.59375 91.507812 -122.050781 92.15625 -122.96875 C 92.800781 -123.894531 93.21875 -124.910156 93.40625 -126.015625 L 95.0625 -131.546875 L 100.03125 -131.546875 L 100.03125 -87.328125 L 93.953125 -87.328125 L 88.703125 -97.828125 C 83.546875 -108.140625 77.742188 -115.691406 71.296875 -120.484375 C 64.847656 -125.273438 58.398438 -127.671875 51.953125 -127.671875 C 47.535156 -127.671875 43.570312 -126.5625 40.0625 -124.34375 C 36.5625 -122.132812 34.8125 -118.175781 34.8125 -112.46875 C 34.8125 -106.019531 37.710938 -100.304688 43.515625 -95.328125 C 49.328125 -90.359375 56.191406 -86.03125 64.109375 -82.34375 C 75.160156 -77.007812 84.046875 -72.082031 90.765625 -67.5625 C 97.492188 -63.050781 102.378906 -58.21875 105.421875 -53.0625 C 108.460938 -47.90625 109.984375 -41.457031 109.984375 -33.71875 C 109.984375 -21.925781 106.25 -12.804688 98.78125 -6.359375 C 91.320312 0.0859375 82.34375 3.3125 71.84375 3.3125 C 65.03125 3.3125 59.132812 2.160156 54.15625 -0.140625 C 49.1875 -2.441406 45.503906 -4.238281 43.109375 -5.53125 C 41.453125 -6.632812 39.75 -7.644531 38 -8.5625 C 36.25 -9.488281 34.632812 -9.953125 33.15625 -9.953125 C 30.757812 -9.953125 28.640625 -9.210938 26.796875 -7.734375 C 24.960938 -6.265625 23.675781 -4.515625 22.9375 -2.484375 L 21 3.3125 Z M 16.03125 3.3125 "/></g></g><g clip-rule="nonzero" clip-path="url(#0257d29535)"><g clip-rule="nonzero" clip-path="url(#8c7434d5bc)"><path style=" stroke:none;fill-rule:nonzero;fill:#d3d9fd;fill-opacity:1;" d="M 332.226562 357.457031 L 361.445312 357.457031 L 361.445312 386.675781 L 332.226562 386.675781 Z M 332.226562 357.457031 "/></g></g><g clip-rule="nonzero" clip-path="url(#a9e0457dcf)"><g clip-rule="nonzero" clip-path="url(#b57a26516a)"><path style=" stroke:none;fill-rule:nonzero;fill:#abb7ff;fill-opacity:1;" d="M 332.226562 275.492188 L 361.445312 275.492188 L 361.445312 304.710938 L 332.226562 304.710938 Z M 332.226562 275.492188 "/></g></g><g clip-rule="nonzero" clip-path="url(#2fdfb7dc5c)"><g clip-rule="nonzero" clip-path="url(#99443faea7)"><path style=" stroke:none;fill-rule:nonzero;fill:#ffffff;fill-opacity:1;" d="M 967.839844 357.457031 L 997.058594 357.457031 L 997.058594 386.675781 L 967.839844 386.675781 Z M 967.839844 357.457031 "/></g></g></g></svg>